<svg width="29" height="28" viewBox="0 0 29 28" fill="none" xmlns="http://www.w3.org/2000/svg">
<path d="M15.7834 0.878997L19.0101 7.57018C19.2345 8.03556 19.6683 8.35803 20.1702 8.43254L27.3856 9.50559C28.6495 9.6937 29.1538 11.2828 28.2396 12.1946L23.0185 17.403C22.6557 17.7651 22.4898 18.2873 22.5757 18.7985L23.808 26.1529C24.024 27.441 22.7028 28.423 21.5726 27.8154L15.1192 24.3433C14.6704 24.1021 14.1339 24.1021 13.6852 24.3433L7.23181 27.8154C6.10154 28.4236 4.78032 27.441 4.99634 26.1529L6.22865 18.7985C6.31459 18.2873 6.14869 17.7651 5.78586 17.403L0.5648 12.1946C-0.349437 11.2822 0.154826 9.69309 1.41876 9.50559L8.6342 8.43254C9.13607 8.35803 9.56992 8.03556 9.7943 7.57018L13.021 0.878997C13.5855 -0.292999 15.2183 -0.292999 15.7834 0.878997Z" fill="#E22106"/>
</svg>
